<svg width="131" height="131" viewBox="0 0 131 131" fill="none" xmlns="http://www.w3.org/2000/svg">
<path d="M85.5329 70.3321L65.0005 41L44.2499 70.1906L20 54.4996L33.0164 104H96.9845L110 54.4996L85.5329 70.3321ZM49.1148 71.119C49.6638 71.3949 50.4651 71.1262 50.4814 70.269C50.4633 69.9805 50.3498 69.7606 50.1884 69.6092L50.9438 68.5464C51.3584 69.2928 52.6682 69.1621 52.6907 68.0605C52.6565 67.5341 52.3076 67.2393 51.9209 67.1717L53.1054 65.505C53.0621 65.6087 53.0315 65.725 53.0224 65.8584C53.0477 67.1077 54.8722 67.151 54.8983 65.853C54.8397 64.956 53.8743 64.7154 53.3506 65.1589L60.1148 55.6426C60.6646 55.9509 61.5048 55.6886 61.5219 54.8106C61.503 54.5023 61.3741 54.2743 61.1956 54.1228L61.9627 53.0447C62.3503 53.8389 63.7096 53.7235 63.7322 52.6021C63.6961 52.0541 63.3202 51.7566 62.9155 51.7052L64.9752 48.8063L65.5954 49.6906C65.069 49.266 64.1252 49.4913 64.0648 50.3991C64.0909 51.6484 65.9145 51.6908 65.9406 50.3928C65.9325 50.2801 65.9073 50.1809 65.8739 50.0881L67.0133 51.716C66.6401 51.7909 66.3084 52.0829 66.2742 52.6075C66.2949 53.6514 67.5686 53.8461 68.0004 53.1259L68.7404 54.1841C68.598 54.3338 68.4988 54.5429 68.4817 54.8151C68.4979 55.6147 69.2497 55.9157 69.7951 55.6904L76.2952 64.9768C75.7796 64.8371 75.1549 65.1237 75.1071 65.8575C75.1315 67.0753 76.8604 67.1429 76.9712 65.944L77.8709 67.2294C77.5779 67.3547 77.3426 67.6296 77.3147 68.0668C77.3336 69.0286 78.4171 69.2693 78.9264 68.7375L79.6692 69.7985C79.5899 69.9292 79.5349 70.0842 79.5223 70.2744C79.5376 70.9874 80.137 71.3047 80.6544 71.2056L81.7551 72.7785L74.6564 77.3722C74.7249 77.2405 74.77 77.0828 74.7745 76.8935C74.6952 75.6892 72.9807 75.6667 72.8978 76.8998C72.9122 77.5651 73.4368 77.8842 73.9263 77.8454L72.4885 78.7757C72.1496 77.9103 70.7641 78.0013 70.6902 79.1074C70.6965 79.3931 70.7975 79.6149 70.948 79.7717L69.832 80.4938C69.2957 80.2396 68.5358 80.5055 68.4826 81.3159C68.4826 81.333 68.4862 81.3483 68.4871 81.3645L65.0005 83.6181L61.5174 81.3645C61.5183 81.3456 61.5219 81.3285 61.5219 81.3095C61.4705 80.5145 60.707 80.2369 60.1698 80.492L59.0619 79.7753C59.2098 79.6176 59.308 79.394 59.3134 79.1011C59.2431 78.0194 57.8567 77.895 57.516 78.7757L56.0728 77.8418C56.565 77.8941 57.0914 77.5867 57.1059 76.8926C57.0274 75.6883 55.312 75.6658 55.2309 76.8989C55.2345 77.0873 55.2823 77.2451 55.3562 77.3776L48.034 72.6388L49.1148 71.119ZM36.4887 99.5001L27.3042 64.5874L60.8585 86.2989L40.4549 99.5001H36.4887ZM93.5131 99.5001H48.7407L102.698 64.5874L93.5131 99.5001ZM64.063 54.816C64.145 53.5829 65.8595 53.6063 65.9388 54.8106C65.9127 56.1077 64.0891 56.0654 64.063 54.816ZM61.8545 57.0245C61.9374 55.7913 63.6519 55.8139 63.7313 57.0182C63.7051 58.3162 61.8807 58.2738 61.8545 57.0245ZM66.2715 57.0245C66.3526 55.7913 68.068 55.8139 68.1464 57.0182C68.1212 58.3162 66.2967 58.2738 66.2715 57.0245ZM59.6469 59.233C59.7299 57.9998 61.4444 58.0224 61.5219 59.2266C61.4967 60.5247 59.6731 60.4814 59.6469 59.233ZM64.063 59.233C64.145 57.9998 65.8595 58.0224 65.9388 59.2266C65.9127 60.5247 64.0891 60.4814 64.063 59.233ZM68.479 59.233C68.561 57.9998 70.2764 58.0224 70.354 59.2266C70.3296 60.5247 68.5061 60.4814 68.479 59.233ZM57.4385 61.4405C57.5205 60.2074 59.2359 60.2299 59.3134 61.4342C59.2891 62.7322 57.4655 62.6899 57.4385 61.4405ZM61.8545 61.4405C61.9374 60.2074 63.6519 60.2299 63.7313 61.4342C63.7051 62.7322 61.8807 62.6899 61.8545 61.4405ZM66.2715 61.4405C66.3526 60.2074 68.068 60.2299 68.1464 61.4342C68.1212 62.7322 66.2967 62.6899 66.2715 61.4405ZM70.6875 61.4405C70.7704 60.2074 72.4849 60.2299 72.5633 61.4342C72.5372 62.7322 70.7136 62.6899 70.6875 61.4405ZM55.2309 63.6499C55.312 62.4168 57.0274 62.4393 57.1059 63.6436C57.0797 64.9407 55.2562 64.8975 55.2309 63.6499ZM59.6469 63.6499C59.7299 62.4168 61.4444 62.4393 61.5219 63.6436C61.4967 64.9407 59.6731 64.8975 59.6469 63.6499ZM64.063 63.6499C64.145 62.4168 65.8595 62.4393 65.9388 63.6436C65.9127 64.9407 64.0891 64.8975 64.063 63.6499ZM68.479 63.6499C68.561 62.4168 70.2764 62.4393 70.354 63.6436C70.3296 64.9407 68.5061 64.8975 68.479 63.6499ZM72.8951 63.6499C72.978 62.4168 74.6925 62.4393 74.7718 63.6436C74.7457 64.9407 72.9212 64.8975 72.8951 63.6499ZM57.4385 65.8575C57.5205 64.6243 59.2359 64.6478 59.3134 65.8521C59.2891 67.1492 57.4655 67.1068 57.4385 65.8575ZM61.8545 65.8575C61.9374 64.6243 63.6519 64.6478 63.7313 65.8521C63.7051 67.1492 61.8807 67.1068 61.8545 65.8575ZM66.2715 65.8575C66.3526 64.6243 68.068 64.6478 68.1464 65.8521C68.1212 67.1492 66.2967 67.1068 66.2715 65.8575ZM70.6875 65.8575C70.7704 64.6243 72.4849 64.6478 72.5633 65.8521C72.5372 67.1492 70.7136 67.1068 70.6875 65.8575ZM55.2309 68.0659C55.312 66.8328 57.0274 66.8553 57.1059 68.0596C57.0797 69.3577 55.2562 69.3153 55.2309 68.0659ZM59.6469 68.0659C59.7299 66.8328 61.4444 66.8553 61.5219 68.0596C61.4967 69.3577 59.6731 69.3153 59.6469 68.0659ZM64.063 68.0659C64.145 66.8328 65.8595 66.8553 65.9388 68.0596C65.9127 69.3577 64.0891 69.3153 64.063 68.0659ZM68.479 68.0659C68.561 66.8328 70.2764 66.8553 70.354 68.0596C70.3296 69.3577 68.5061 69.3153 68.479 68.0659ZM72.8951 68.0659C72.978 66.8328 74.6925 66.8553 74.7718 68.0596C74.7457 69.3577 72.9212 69.3153 72.8951 68.0659ZM54.8983 70.2681C54.8722 71.5652 53.0477 71.5229 53.0224 70.2735C53.1045 69.0413 54.819 69.0638 54.8983 70.2681ZM57.4385 70.2735C57.5205 69.0413 59.2359 69.0638 59.3134 70.2681C59.2891 71.5661 57.4655 71.5229 57.4385 70.2735ZM61.8545 70.2735C61.9374 69.0413 63.6519 69.0638 63.7313 70.2681C63.7051 71.5661 61.8807 71.5229 61.8545 70.2735ZM66.2715 70.2735C66.3526 69.0413 68.068 69.0638 68.1464 70.2681C68.1212 71.5661 66.2967 71.5229 66.2715 70.2735ZM70.6875 70.2735C70.7704 69.0413 72.4849 69.0638 72.5633 70.2681C72.5372 71.5661 70.7136 71.5229 70.6875 70.2735ZM75.1044 70.2735C75.1855 69.0413 76.9 69.0638 76.9794 70.2681C76.9532 71.5661 75.1297 71.5229 75.1044 70.2735ZM52.6898 72.4766C52.6646 73.7737 50.8401 73.7322 50.814 72.4829C50.8969 71.2488 52.6114 71.2723 52.6898 72.4766ZM55.2309 72.482C55.312 71.2488 57.0274 71.2714 57.1059 72.4757C57.0797 73.7737 55.2562 73.7313 55.2309 72.482ZM59.6469 72.482C59.7299 71.2488 61.4444 71.2714 61.5219 72.4757C61.4967 73.7737 59.6731 73.7313 59.6469 72.482ZM64.063 72.482C64.145 71.2488 65.8595 71.2714 65.9388 72.4757C65.9127 73.7737 64.0891 73.7313 64.063 72.482ZM68.479 72.482C68.561 71.2488 70.2764 71.2714 70.354 72.4757C70.3296 73.7737 68.5061 73.7313 68.479 72.482ZM72.8951 72.482C72.978 71.2488 74.6925 71.2714 74.7718 72.4757C74.7457 73.7737 72.9212 73.7313 72.8951 72.482ZM77.312 72.482C77.3931 71.2488 79.1085 71.2714 79.1869 72.4757C79.1617 73.7737 77.3381 73.7313 77.312 72.482ZM54.8983 74.685C54.8722 75.9822 53.0477 75.9398 53.0224 74.6904C53.1045 73.4582 54.819 73.4807 54.8983 74.685ZM57.4385 74.6904C57.5205 73.4582 59.2359 73.4807 59.3134 74.685C59.2891 75.9822 57.4655 75.9389 57.4385 74.6904ZM61.8545 74.6904C61.9374 73.4582 63.6519 73.4807 63.7313 74.685C63.7051 75.9822 61.8807 75.9389 61.8545 74.6904ZM66.2715 74.6904C66.3526 73.4582 68.068 73.4807 68.1464 74.685C68.1212 75.9822 66.2967 75.9389 66.2715 74.6904ZM70.6875 74.6904C70.7704 73.4582 72.4849 73.4807 72.5633 74.685C72.5372 75.9822 70.7136 75.9389 70.6875 74.6904ZM75.1044 74.6904C75.1855 73.4582 76.9 73.4807 76.9794 74.685C76.9532 75.9822 75.1297 75.9389 75.1044 74.6904ZM59.6469 76.8989C59.7299 75.6658 61.4444 75.6883 61.5219 76.8926C61.4967 78.1906 59.6731 78.1483 59.6469 76.8989ZM64.063 76.8989C64.145 75.6658 65.8595 75.6883 65.9388 76.8926C65.9127 78.1906 64.0891 78.1483 64.063 76.8989ZM68.479 76.8989C68.561 75.6658 70.2764 75.6883 70.354 76.8926C70.3296 78.1906 68.5061 78.1483 68.479 76.8989ZM61.8545 79.1065C61.9374 77.8742 63.6519 77.8968 63.7313 79.1011C63.7051 80.3991 61.8807 80.3558 61.8545 79.1065ZM66.2715 79.1065C66.3526 77.8742 68.068 77.8968 68.1464 79.1011C68.1212 80.3991 66.2967 80.3558 66.2715 79.1065ZM64.063 81.315C64.145 80.0818 65.8595 80.1043 65.9388 81.3095C65.9127 82.6076 64.0891 82.5643 64.063 81.315Z" fill="#006D77"/>
</svg>
